<mxfile host="app.diagrams.net" modified="2022-05-04T14:38:16.466Z" agent="5.0 (Windows NT 10.0; Win64; x64) AppleWebKit/537.36 (KHTML, like Gecko) Chrome/100.0.4896.127 Safari/537.36" etag="xbuHSU1IgHottyOqNIZ6" version="17.5.1" type="github">
  <diagram id="6a731a19-8d31-9384-78a2-239565b7b9f0" name="Page-1">
    <mxGraphModel dx="1483" dy="770" grid="1" gridSize="10" guides="1" tooltips="1" connect="1" arrows="1" fold="1" page="1" pageScale="1" pageWidth="1169" pageHeight="827" background="none" math="0" shadow="0">
      <root>
        <mxCell id="0" />
        <mxCell id="1" parent="0" />
        <mxCell id="2" value="Запуск" style="shape=mxgraph.flowchart.terminator;strokeWidth=2;gradientColor=none;gradientDirection=north;fontStyle=0;html=1;" parent="1" vertex="1">
          <mxGeometry x="260" y="60" width="120" height="30" as="geometry" />
        </mxCell>
        <mxCell id="7" style="fontStyle=1;strokeColor=#003366;strokeWidth=1;html=1;" parent="1" source="2" edge="1">
          <mxGeometry relative="1" as="geometry">
            <mxPoint x="320" y="130" as="targetPoint" />
          </mxGeometry>
        </mxCell>
        <mxCell id="40" value="Останов" style="shape=mxgraph.flowchart.terminator;strokeWidth=2;gradientColor=none;gradientDirection=north;fontStyle=0;html=1;" parent="1" vertex="1">
          <mxGeometry x="260" y="827" width="120" height="30" as="geometry" />
        </mxCell>
        <mxCell id="--X8fHozlcvDrV2bjmmv-56" style="edgeStyle=orthogonalEdgeStyle;rounded=0;orthogonalLoop=1;jettySize=auto;html=1;exitX=0.5;exitY=1;exitDx=0;exitDy=0;" edge="1" parent="1" source="--X8fHozlcvDrV2bjmmv-55" target="--X8fHozlcvDrV2bjmmv-57">
          <mxGeometry relative="1" as="geometry">
            <mxPoint x="319.63157894736855" y="220" as="targetPoint" />
          </mxGeometry>
        </mxCell>
        <mxCell id="--X8fHozlcvDrV2bjmmv-55" value="Ввод&lt;br&gt;a, b, eps" style="shape=parallelogram;perimeter=parallelogramPerimeter;whiteSpace=wrap;html=1;fixedSize=1;" vertex="1" parent="1">
          <mxGeometry x="260" y="130" width="120" height="60" as="geometry" />
        </mxCell>
        <mxCell id="--X8fHozlcvDrV2bjmmv-59" value="" style="edgeStyle=orthogonalEdgeStyle;rounded=0;orthogonalLoop=1;jettySize=auto;html=1;" edge="1" parent="1" source="--X8fHozlcvDrV2bjmmv-57" target="--X8fHozlcvDrV2bjmmv-58">
          <mxGeometry relative="1" as="geometry" />
        </mxCell>
        <mxCell id="--X8fHozlcvDrV2bjmmv-64" style="edgeStyle=orthogonalEdgeStyle;rounded=0;orthogonalLoop=1;jettySize=auto;html=1;exitX=0;exitY=0.5;exitDx=0;exitDy=0;entryX=0.5;entryY=0;entryDx=0;entryDy=0;entryPerimeter=0;" edge="1" parent="1" source="--X8fHozlcvDrV2bjmmv-57" target="--X8fHozlcvDrV2bjmmv-67">
          <mxGeometry relative="1" as="geometry">
            <mxPoint x="160" y="310" as="targetPoint" />
          </mxGeometry>
        </mxCell>
        <mxCell id="--X8fHozlcvDrV2bjmmv-57" value="|a&lt;sub&gt;ii&lt;/sub&gt;| &amp;gt;= ∑। a&lt;sub&gt;ik&lt;/sub&gt;।" style="rhombus;whiteSpace=wrap;html=1;" vertex="1" parent="1">
          <mxGeometry x="241" y="210" width="159" height="80" as="geometry" />
        </mxCell>
        <mxCell id="--X8fHozlcvDrV2bjmmv-68" style="edgeStyle=orthogonalEdgeStyle;rounded=0;orthogonalLoop=1;jettySize=auto;html=1;exitX=0;exitY=0.5;exitDx=0;exitDy=0;" edge="1" parent="1" source="--X8fHozlcvDrV2bjmmv-58" target="--X8fHozlcvDrV2bjmmv-67">
          <mxGeometry relative="1" as="geometry" />
        </mxCell>
        <mxCell id="--X8fHozlcvDrV2bjmmv-77" style="edgeStyle=orthogonalEdgeStyle;rounded=0;orthogonalLoop=1;jettySize=auto;html=1;exitX=0.5;exitY=1;exitDx=0;exitDy=0;" edge="1" parent="1" source="--X8fHozlcvDrV2bjmmv-58">
          <mxGeometry relative="1" as="geometry">
            <mxPoint x="320" y="470" as="targetPoint" />
            <Array as="points">
              <mxPoint x="525" y="415" />
              <mxPoint x="320" y="415" />
            </Array>
          </mxGeometry>
        </mxCell>
        <mxCell id="--X8fHozlcvDrV2bjmmv-58" value="Выполнено ли для одного i&lt;br&gt;|a&lt;sub&gt;ii&lt;/sub&gt;| &amp;gt; ∑। a&lt;sub&gt;ik&lt;/sub&gt;। ?" style="rhombus;whiteSpace=wrap;html=1;" vertex="1" parent="1">
          <mxGeometry x="410" y="300" width="230" height="90" as="geometry" />
        </mxCell>
        <mxCell id="--X8fHozlcvDrV2bjmmv-62" value="да" style="text;html=1;strokeColor=none;fillColor=none;align=center;verticalAlign=middle;whiteSpace=wrap;rounded=0;" vertex="1" parent="1">
          <mxGeometry x="421" y="230" width="50" height="20" as="geometry" />
        </mxCell>
        <mxCell id="--X8fHozlcvDrV2bjmmv-63" value="нет" style="text;html=1;strokeColor=none;fillColor=none;align=center;verticalAlign=middle;whiteSpace=wrap;rounded=0;" vertex="1" parent="1">
          <mxGeometry x="170" y="230" width="50" height="20" as="geometry" />
        </mxCell>
        <mxCell id="--X8fHozlcvDrV2bjmmv-67" value="Ошибка" style="shape=mxgraph.flowchart.terminator;strokeWidth=2;gradientColor=none;gradientDirection=north;fontStyle=0;html=1;" vertex="1" parent="1">
          <mxGeometry x="100" y="330" width="120" height="30" as="geometry" />
        </mxCell>
        <mxCell id="--X8fHozlcvDrV2bjmmv-71" value="нет" style="text;html=1;strokeColor=none;fillColor=none;align=center;verticalAlign=middle;whiteSpace=wrap;rounded=0;" vertex="1" parent="1">
          <mxGeometry x="360" y="320" width="50" height="20" as="geometry" />
        </mxCell>
        <mxCell id="--X8fHozlcvDrV2bjmmv-72" value="да" style="text;html=1;strokeColor=none;fillColor=none;align=center;verticalAlign=middle;whiteSpace=wrap;rounded=0;" vertex="1" parent="1">
          <mxGeometry x="360" y="394" width="50" height="20" as="geometry" />
        </mxCell>
        <mxCell id="--X8fHozlcvDrV2bjmmv-75" style="edgeStyle=orthogonalEdgeStyle;rounded=0;orthogonalLoop=1;jettySize=auto;html=1;entryX=0.5;entryY=0;entryDx=0;entryDy=0;entryPerimeter=0;" edge="1" parent="1" target="40">
          <mxGeometry relative="1" as="geometry">
            <mxPoint x="321.1428571428571" y="610.0000000000001" as="targetPoint" />
            <mxPoint x="320" y="800" as="sourcePoint" />
          </mxGeometry>
        </mxCell>
        <mxCell id="--X8fHozlcvDrV2bjmmv-78" style="edgeStyle=orthogonalEdgeStyle;rounded=0;orthogonalLoop=1;jettySize=auto;html=1;exitX=0.5;exitY=1;exitDx=0;exitDy=0;" edge="1" parent="1" source="--X8fHozlcvDrV2bjmmv-73" target="--X8fHozlcvDrV2bjmmv-79">
          <mxGeometry relative="1" as="geometry">
            <mxPoint x="320.47826086956525" y="730" as="targetPoint" />
          </mxGeometry>
        </mxCell>
        <mxCell id="--X8fHozlcvDrV2bjmmv-80" style="edgeStyle=orthogonalEdgeStyle;rounded=0;orthogonalLoop=1;jettySize=auto;html=1;exitX=0;exitY=0.5;exitDx=0;exitDy=0;" edge="1" parent="1" source="--X8fHozlcvDrV2bjmmv-73">
          <mxGeometry relative="1" as="geometry">
            <mxPoint x="320" y="440" as="targetPoint" />
            <Array as="points">
              <mxPoint x="160" y="670" />
              <mxPoint x="160" y="440" />
            </Array>
          </mxGeometry>
        </mxCell>
        <mxCell id="--X8fHozlcvDrV2bjmmv-73" value="&lt;p class=&quot;MsoNormal&quot; style=&quot;margin-bottom: 8.0pt ; line-height: 107%&quot;&gt;&lt;br&gt;&lt;/p&gt;" style="rhombus;whiteSpace=wrap;html=1;" vertex="1" parent="1">
          <mxGeometry x="201.88" y="630" width="237.25" height="80" as="geometry" />
        </mxCell>
        <mxCell id="--X8fHozlcvDrV2bjmmv-74" value="" style="shape=image;verticalLabelPosition=bottom;labelBackgroundColor=default;verticalAlign=top;aspect=fixed;imageAspect=0;image=data:image/png,iVBORw0KGgoAAAANSUhEUgAAAQYAAABXCAYAAADmkOvaAAAAAXNSR0IArs4c6QAAAARnQU1BAACxjwv8YQUAAAAJcEhZcwAAEnQAABJ0Ad5mH3gAABm4SURBVHhe7d0HXBPn/wfwTxJCAFFwIChWocWFuOqoA60oan8WB9pWrVql2Drb/h3V2mFr1dZR927raN1WHLiBUlEUraMtuEBEsApo2UNWku//7jwnSchS1vN+vY7jeXIJPJfke8/dM05CHDAMwzxBKq4ZhmEeYYGBYZhiWGBgGKYYFhgYhimGBQaGYYphgYFhmGJYYGAYphgWGBiGKYYFBoZhimGBgWGYYlhgYBimGJPHSuTn58PNzQ22traQSlmcYSqWOnXqYMeOHXBwcBBzKgeTv8l37twRFpVKBYlEwha2VKiFP9jx68rG5BrDwYMH0bdvX6HmoFAoxFyGYcozk2sMly9fhkwmY0GBYSoQkwNDTEwMbGxsxBTDMBWByYEhISEBdnZ2YophmIrA5MCQlJRU6a7YMkxFZ3Jg+O+//+Ds7CymGIapCEwODNnZ2XB1dRVTDMNUBCYFBr7vAt9M2ahRIzGHYZiKwKTAcO/ePWHt4eEhrBmGqRhMCgxxcXHCunnz5sKaYZiKwaTAEBUVJaxr1KghrHVS5yLpymkc2rYOu85lClm50UewbuEyBMYUCGmGYcoGkwJDdHQ0rKys9OhLrkJCxGHsme+PASMX40yBArf2TMJbH3yFed9MxsiZgcgVt2QYpvSZfCpRtWpVMaWLDA06+6KzixWkjl3RVfozlkf3xabgNRjqKoOltYLbgmGYssKkwHD79m39TiN46ts4fiIatm1r4urxuvhkenc43DuDs3EKtO38GizFzRiGKX0mBQa+cxM/Xl0f6v9CEHxeCet7ajR5fwBekqqRGhKM89QG3t4Opv0jDMOYlUnfx/T0dNSvX19M6Zb1RxAi8qrAfdgY9HPi/2w2/jh2GvkePdDrpfIXFpQZt3AnXS2mKpfKXPbKwqRv5P3794XZm0p2HyeDwpFTfyimjXrlwfWE++EIOpkFtx690LBMXmDIxN87l2ND+F0xzcvElaM/4dNe9WHn2AcrrivF/Ceo4nF42XIExt4XM8ojI8tujJxYbn/Nx65olZihQvzhZVgeGMt9apjSYnRgyMrKglqthru7u5ijQ8GfCDqeClffYeha5UFW4T9hOJVSB109ZQhYdwR3ytIBSHULe6Z+hN+qvo1Rno5iJs8O7m+MRH8PKyhf6oH/tdJwZUTmgj6ju+H27BH4Mvguyt1x1ZSyGyI/FkdXTkLvZh7wmfozIu49DAwyuPQZjW63Z2PEl8G4a+oOzLyC/UtnYMLo0Zj4+VLsu5RR/t6T0sDP4GSMqKgofuYniomJEXO0K/pzBjWzdKUJofliDlHursFkL61KLYYupbB7KjG3LMimk194ktesi/T4v32C8grNba8g59GHKU/M0kSVHECjWnvTokiNr1JGmafselHlUV6+kmIXdCa5hRv934kC8QGRKpkCRrUm70WRmv8XPajuHqSPWthRVaeG1NilBimkEpLYNKJR22+SUtyG0czowLB9+3YhMBQUPPOG6ivvJkX8fpGSjHz685JzYio1rzOINmsJVqr4pdTN2oGGBWSJOdooKXqBJ9X0nE+XisSsMs58Zddfzq8DyEpTYOAooxeQZ01Pmm/UDiygUzPeoMErzlKKEAXy6UbAOGplKyGp03AKSBc2YrQw+lTi6tWrsLCwgKWlkVVKKxd06N4aTmWpnVKdgF/n/oRb7fuij4OmXaPGf8FBuKDwxBuvKxF7JgzHjx9/sJw4j4SnemnJ8Eq/PnA7txwLDmaIeWWYWcuuP4lMqrUPi+yVfujjdg7LFxyEwXtQGYto54lYM7E9agp/QIGXB/6AhSMaQJJyEX/GFAqbMZoZHRhu3LhR4aZ0U8Xtwtbj99GwTVvujFqTLIQeiwB1fAPe1W1Qy+k/bPbzxYR1Z5BuVQv2VuJmIplLa7SodReBmw8hTcwrq8xddrOQuaB1i1q4G7gZhwzdgRbu8JvwJqqLyQes0LBhA8ikteBY20LMYzQxOjDwU7rZ29uLqbKiEHdOh+OqkUMvMsLC8HehAvVfcdF8FMs9gWPh+WjbqxdqIx3ntwah2swTOLv9M/i2d4Hds0+ycINbAwmyIkIRkS/mlVFmL7tZWMDNjTvCZ0Ug9NkdmHMJJyISuXfcEEW4GfcvbDwHoX85bCJ/kYzeO8nJyahdu7aYekyduB3junmic+fORi9enwQgVXw9fanTzmD56KGYdR6oKRczDVKI2Jg4FEjtULOG5qNJwZljOJ7RAt6eKfjx/Y/xR4fZWOTXHLbi48XInOBYSwZK5aq1yWX5WriZyq76F2cP7MPevXt1LPtw8Fyi+ISSyODkWAsySkVsdPLTrQnW1ZF39GMM+OBHnNf3PCM7FNuCbDH6G3+8/FwCWcVhdGBIS0tDvXr1xNRjUidv9G+RgYsRp3H6dATOJVZFK88u6NJF9+LZoQVcrFNw5WwETp2+guSHrVd6UMZtxwe9P0XC26ux9mNP1DaqVITs7FzupwUsNAaWQlw8GopEmzz8PnUoZmyPhUWtmiXsQClsrLk6NmUjM7MsBwYzlV11B+cOBiIwUPdy+Pwd8Qklk9pYcycA3P+Xmfl0YJA5o/esLVjY5ghG9BiHgISSPjD5OL9oAaIHr8HXXcQ2c0Y78SKkweRyOU2aNElMPSP/Eq3oXZu/skkSWR3qu/Yq6df4kE/XfvKllxp9QmF6tlaokgJprEdd8l56lUy7+F9Ap6Y0JgupE/kd0NAYVxRJX78qJ/uOn1Poja30lr0VdVsST7obWnNp12A7ksg70PfXynID2fMou35ytw6kKlpaJXh8s7adRE4dvr+mpYkxjYI/akrVW02m4BTt/1Fa6GfU328zxbF2Sr0YdWwtLCxEUVERmjRpIuY8Q9EM4zdvwjh37mipSsLBSe9gWnCqHh1LFGg86lt86JqNVH0OsKoEbB4/Bhtlfvh+XBPueGcKC7i+Uh8WlIOMzOK9+lQJRxFyuQq8xk2Bl0tneLYCLv7xB3e2zdVYEuPxr8brGvnca3HnxlXqw9W5LNddn0fZzSM/I5Pbi1VQ39VZS+tFdXh/uxAD01fAb+IujR3l8i+txaebnTFr5XC4slMIvRgVGPgp43m6Zm6SOvwPi3YuQE8HKSgvCitGjMCaK3pcKrJoBK/OzlAViWmt1EjcNhnTAjPhOfpDvGpys6cUDp07wd2iAP/evIWnK6ZqJB8Lxl8W7dGrhz23qTO8XndHfvghHL15GqvWHUeOpikplDeRwH1SFa074bUy3YDzHMquJxV3kFFSEXew0XSnRCVuJtyBWtEanXTtQPvemOTfEnd/m4YvDzx9ACqI/gWTfsiC/5KJaPnoJdS4e+WK6b0qza0wEWfOxIiJUibWHAxy9OhRoXNTamqqmKONiu4eGk9NrSTc9hKyajaBDt81RwWUkxdOU5rISWLlRcsS9HzN/HuUlFr8hKMoPZ6uxqVSkfISzX3Niuzf3k5Pd+FJoV8G2JHC8we6IVZFiy7OpFZyGdm3HEu7b2v5+ynryce2KvVcZZ5qt0ledNlLorxFx9d/Tx90rElS7lTBpc80WrL7b/HBh1JovY8tVe25iuJL+DPKy7OprVxCirbfUqRYzNyodTSoeTsaNWcZLV++/MGybBF9+1Ff6jx6F3cSUkbk3aSQ5eOph6st2fTbJGaWTJV1nUK3LKGZk8eRv58f+Y+bQl8v3UYn43PFLYxnVGBYtGgRSSQSUqvVYo4u+RS5tCfxFQfucEMOvZaSOXoJpwcMJ0fuNeUtv6K/dFxcUCWfpLWf+dMAz6bkaC2jKu1m0flHp7MFdH37h9TaXkoSeT0atTeF7u58l5yd/SgwW9xEqxyKjQinaxnaP7HpO4eQU8NxFGS+joIGKc2ym0X6Thri1JDG6bMD83+n8S4ygsyVJvyeR8qra8mnrgVxlRnhIPbUIqtLo/aX0pvypOxoOrjQn7rUsya5Q2t656utdPFBN03dlEn0x4Ih1KJGNXql90e0cONuOrBvA019vZZwXU9q50WLr5p2McWowDBmzBiytrYWU3pQJdOBsU1IIeHeFImCmowJpGSTPlNZtPtdfidIqca7u0lXfFQmHKSF0yfRB76tycGCq7lIHeidbfe4I7iKkvaNpkZVrMmKO9JAYkO91tzh/tcE2jLYnXqviDWtP73yOi3t9SqNOZhSarWFUiu7WSjp+tJe9OqYg6TjmuITUuin/1lzgUBG9ccGmz6W4zlSpV+i3bOHUzsnBVk5d6SR3+2ly/oGWVUKHfm4GVlLbantjDBKe+Jp+WGfkJsFFxjse9AyEy92GxUYevfuTY6OjmJKT3mRtMT7QUSDtCZ1/+Fv49+8/FCa6ModHSCnll/9pWdrRDaFT2tOllxNx953M6Uk7aT3Ogyk1X9nUd6d83Tk8J+U+PCFMk7R3IGDadFfxlbJcumfFaNo5Mp/dAatF+dFlt08cv9ZQaNGrqR/9P438il0givJuM+X3ONzOqffh+KFUqZcpK1fvUUta8qpimt3Grs0iG4YuJsfnMZJyMJtIoU++1xVOl0ODqTwONPfO6MCg4eHBzVr1kxM6U+VHEhjGiuE6p3EshH570006miqur2cvCz5aqEl9ViVpPdrKKPnUydLCUlr+9KkMb40/XiG+IgGudcoYOEc2nS2pOsoz1AlUvjGBbTi0E09m2hfjBdSdrNQUWL4Rlqw4hDdNGgHKunq3PYk5z9b1j60ocxcQOBO2hJP0/pP+1FTeznZN/ahyT+epDtGfjjuretNCq5WVNf/kNGjTvUh4X9w510G4adz428yExwcLOboLz9yMXy6f4rfUwEH3w34a/dIOBvYNlJ49jO09pyPKypr+P6agj3D9bzkr7yAL9t0xNwooMnHQTi3tJv2Xosi/m5bMpkhbVwq7jky7jliUi8q3AyYjR+Ck59pESiBxBavjZ0Hv5Z6NNS+kLKbh3F/V427a3qj/vgQFMrb4JsLZ/B189IdD1FwKwwbFn2HxRuPI/3lfhg7dTo+GdoWDibsUmXkAnR//XNEea7Fpf2jDf7u6Muol83MzESDBg3ElGGsWkzAt36NYdPIDz+uHmFUweh+LvKEcMZ9AQ157y084N21HhdvAXvHOrAWs3Ux/ANqaFDgEfLSbguzbhu2xONejp5tbi+k7OZh3N+VwkqhgNBySrnI0Xe/PDdKXNs5CzPXBOOmoi2GTZ6Gj00MCjyLFlOx+7fpcI/4CK96dIJX9+7o0aMXhiz+08BxIyUQ6g0G4Fsi+BaJefPmiTmGSQudSq2du9J3540/DyoIn0yNLPgLmVY04NccMVcf6XTAvz53HiohW5/1dE/MrRwqftkzNvhw1WzucyH3oBl/loWLDCpKi/yNvh3WjpwsZWTX+E2a/FO40acRBfFH6bt325BjtQbU4/9W04HTUXT9RhzF3bxD6WY+bzX4eJ2SksIHEzRr1kzM0Z8qbhNG++2F+6ItmN7G+B4/MofaqMkfGkiNnOzspzq06HL/9CJsVHbFa9yn5/75cJwtNqlgIf5Z+z76DVuIU9liVgVR8cuuxv37efyFJ+4UqwYcNM4p8aJJUb35W/hqy5+4HrUfX3lm47ePX0fjpj0xcWUoEgwYcZv71xL06+iDL3aloddPJ3FsyTj4dPSA28uucHWpC3szz2ti8N6Lj48X1gbfyDb7NL599wskjvwVawa/ZNw5jEhWrzHc7PhXIKT9959+geH+Wcyfn4Qhcz9Ct4YWUKecRXjUw8pXIQqf6gkseVAlrSgqRdnVSE3NEAKDtPoraCjMRF522DZ6E1N+DkPMtRDMf1OKY5/3QtNGr2P0osOIzRE30qbwHOa9PwNBSSrYek/H92+99FT3cFXCQcwc3BN9Pz9kvt6cDyoO+lu/fj2/76mwsFDM0YPqFu0Y5kYugzY96j1nElUire7Jt1lLyen9g1qbPQtycsSWgTT6fWpPGvbrLa5yl0sH/JxIKrEkz4U3SElFFL36Q/rsaBno8GJGla/seXTIvw5XBZaQzRvrKMmY5q4XqCgpgjZMG0DNqstJUac9jZgTQJe09GUoivyGXpXzMY8fTBb9dB+TvPM0p1M1odzydrPpkpk6oBQLDBcvXhR/02zq1KnCyEr95dK577qSc5tp9IfZ5tlTUfwyL7KWgOSdF1Cshp1RFPk9daqqoPp9vqQl03tS+xE76GHv3ZRN/amaRELW7abQ5rVjacDEvZScl043L4ZSwMaf6PB1M+3dUlIpy66Mox+6yIXOWt2Xl4Eu6HpSpv5NO74eQm1qy0leqxUNWXVefOQx1d1fyNdeygUGC2oyJfxxM6UqmQ5P8CAr7nsgtWtD04LN15nuqcAwfvx4qlu3rs6uzgMHDiR7e3sxVRK+h50/NX7Jh9ZeM+RiUDYFLVhMJ3VcUFElbqT+1aUksR9EWzU0yRec/pSa8L39JHKq4z2PIp7YRpW8g4bUkXGPWVKDASvp7+xUigzaSXN8nEhm3YNWGtv/v4yolGXP2kmDuc+DtIYv/VLWqwuaZF2l/fP8yGvMNjHjSQUU/ctIcq/Gfd6tXMh7zFc0e+ZkGtbJmaysHKnN2zNp95US+7Eb5FFgCAkJEU4R+CU6OlrMLa59+/bk6uoqpnTLj1pKPet50MQjfDdc/anubqN3e87UOQaCr4mcmNKU5EK/d007JYeuHd5AP+8+R8nFDoIqSv17L/3CPXb30WM5FDCsJlm2n0smdjMvAypf2XMO+ZOzTE7NPj1VprtDm6Io5QqF/raeVi5ZREtW/Eib95+kaynPp/VFCAxpaWnC2AeplK+ugFauXCk8qEmDBg2oQ4cOYko7VcpR+qi5M/VcYth9AVSp52jVIBeqPmgrV2/QTXVvP73vIieHt7aYOPaCUxBGn7gpyH362TLVY/GFKPdlT6VdQx1J0XAsHU4t37W9skLo+dioUSNhGnj+PpRHjhxB3759hSm4NLGzs0Pv3r2xa9cuMUcDZTR+HNgNE087o++AVs/M1KuFKg9p/17D+T8jcTtbguZfRODCnDYlTL6iRlrwZLz+dgh67o/A4tf1uSW/ZsrzX6B15y3wPBSDNd4KMbdyKO9lL7jwDTx77kHX3SewqHtZm6C4nIqIiBAGRGVmZtKqVauEGoONjQ0VFWmuoshkMpo+fbqY0iSdjk9/larwIynFUxODF0lV8t2soy//U4ro+qYh1Lj5hxRo9Lmlkq7MaU+WDsMowLynauVAOS97+gma0dGDhm6ONXFqP+ZJQo0hPz8fVlZWwr0iHt6k9tSpU+jUqZPw+0O5ubmwtbXFxo0bMWrUKDH3GRmnsG7+Plwv4r/jRpLWRJex09Bf76l8lYjf/zkmrFPiwzUL0L+BgX3k1fFY2qMpZlZbjRv7/eAgZlcK5bjsqqQQzP54NfJGLMbsfi4oS/cuKveE8PAEvvbAZ8+aNUvMeezatWvCYxcuXBBzypaiO6G0/Is1FGFob+t7/ExLltRlYSSdWfs97TBLZ4tyoryWPSucVn+9ikJvPc8xhpVXscDg7+8vfPm52oKY89iePXuEx9LTK9aN/4r++ZpelUupRqvB9F1IstnagsuDylx2Rrtiw6737dsHX19fYYQbFwBQterjC3pz5szBzJkzhWGxEkkF6jSszsS18AsoaNwVLR1Ld6juC1eZy85oVaxDuZeXl/Cl57/8/A1Ln3T9+nVYW1tXrKDAk9qhSdfulfOLUZnLzmhVLDDwzZHu7u7C789OxHLr1i3hcYZhKjaNQ9D4UwleUFCQsH6Iv59ErVq1xNRzlBOLw8vmY1e0QfMZMQxjJhoDg4+Pj7COjo7G7du3hd95qampqFu3rpjSxoRx/fmxOLpyEno384DP1J8RcY8FBoYpDRoDQ9u2bYV+DbyQkBBhzcvOzoarq6uYKokR4/ot66HbBz9g9cS2Jt5ujmEYU2gMDHyLxGuvvSb8/vA6g1KpREFBARo2bCiktbNEy7EbELh1KjoZ2kNZagUrhQxOTg5a7lPIMMyLoDEw8IYMGSKs+esMarUaycnJQlrnlG6FGYj/6w/s2fQzjsQafxogkUlZYGCYUqQ1MPTp00dY83M8RkVFITY2Vkg/bLEoRp2GqLAgbJ35Lt4ZvwNx1uKJhPI+MjMzkJGhY8nMxP3iN1lmGKaUaA0M/EjLhy0Q/HWGS5cuCb87OTkJ62KkNdC855toalcEWfPu6CHOuZd/+FN4tmuHdjoXL8wIMmBmTIZhniutgYHXrVs3Yc1fZ+BbKORyubBoVXgBJ87mwM3LGw/HP1n1W4WomOtC5yitS8xFLOvz4GInwzClT2dgGD58uLAOCwtDTEzMU92jNVFGHsPvtxzR1bslG+nGMOWYzlvU8cOs+WDAb1KtWjXUrl1bOMJrpsLVuZ3QallDbI/bgoHi/c+Uf/2CmduiUKj1r3Ak1mg14msMb/GgkfL+tkGoPTISH4RexpIuLMQwzIums8ZQpUqVR/0WsrKytF9f4Kn/xbGQSCg69kCXJ26KKKnmjIaNG6OxzsUNdatWsPEXDFOe8TUGXfiZo/nN+GXo0KFirgZmHNeftdGHFLIGND6EjbVnmNKgs8bA8/PzE3/Do9mdNFEm3UJigRKXt85FqJsf3tZ79qUnqP5F2IZ5mPJjBIrUiTi8eCaWBvwjPsgwzItS4m3w+c5N/FDrwsJCbNu2DVytQXzkGWxcP8NUGCXWGKRS6aNOTTrvV8nG9TNMhVFiYOD1799fmJzFxcVFzGEYpiIr8VSCxzdbBgQE4L333hNzGIapyPQKDAzDVC56nUowDFO5sMDAMEwxLDAwDFMMCwwMwzwD+H8EhPvnXSCA6QAAAABJRU5ErkJggg==;" vertex="1" parent="1">
          <mxGeometry x="268.78" y="651.54" width="111.22" height="36.93" as="geometry" />
        </mxCell>
        <mxCell id="--X8fHozlcvDrV2bjmmv-76" value="да" style="text;html=1;strokeColor=none;fillColor=none;align=center;verticalAlign=middle;whiteSpace=wrap;rounded=0;" vertex="1" parent="1">
          <mxGeometry x="310" y="720" width="50" height="20" as="geometry" />
        </mxCell>
        <mxCell id="--X8fHozlcvDrV2bjmmv-79" value="Вывод&lt;br&gt;x" style="shape=parallelogram;perimeter=parallelogramPerimeter;whiteSpace=wrap;html=1;fixedSize=1;" vertex="1" parent="1">
          <mxGeometry x="260" y="760" width="120" height="40" as="geometry" />
        </mxCell>
        <mxCell id="--X8fHozlcvDrV2bjmmv-81" value="нет" style="text;html=1;strokeColor=none;fillColor=none;align=center;verticalAlign=middle;whiteSpace=wrap;rounded=0;" vertex="1" parent="1">
          <mxGeometry x="151.88" y="651.54" width="50" height="20" as="geometry" />
        </mxCell>
      </root>
    </mxGraphModel>
  </diagram>
</mxfile>
